<svg xmlns="http://www.w3.org/2000/svg" height="24" viewBox="0 -960 960 960" width="24"><path d="M280-76.413q-33 0-56.5-23.5t-23.5-56.5q0-33 23.5-56.5t56.5-23.5q33 0 56.5 23.5t23.5 56.5q0 33-23.5 56.5t-56.5 23.5Zm400 0q-33 0-56.5-23.5t-23.5-56.5q0-33 23.5-56.5t56.5-23.5q33 0 56.5 23.5t23.5 56.5q0 33-23.5 56.5t-56.5 23.5Zm-428.022-640 90.5 189h279.044l103.782-189H251.978Zm-41.826-87.174h580.913q27.213 0 41.411 24.087t1.046 48.913l-136.5 246.674q-11.478 20.717-30.803 32.315Q646.894-440 623.913-440H328.065l-41.847 76.413h477.369v87.174H280q-47.63 0-71.587-41.413t-1.761-82.087L259.935-496 117.848-796.413H36.413v-87.174h135.739l38 80Zm132.326 276.174h279.044-279.044Z"/></svg>